<svg width="130" height="130" viewBox="0 0 130 130" fill="none" xmlns="http://www.w3.org/2000/svg">
<circle cx="65" cy="65" r="65" fill="#DA6464"/>
<path d="M56.6855 60.2949C56.6855 65.752 55.8047 69.8053 54.043 72.4551C52.2956 75.1048 49.6172 76.4297 46.0078 76.4297C42.513 76.4297 39.8633 75.0618 38.0586 72.3262C36.2539 69.5905 35.3516 65.5801 35.3516 60.2949C35.3516 54.752 36.2253 50.6699 37.9727 48.0488C39.7344 45.4134 42.4128 44.0957 46.0078 44.0957C49.5169 44.0957 52.1738 45.4707 53.9785 48.2207C55.7832 50.9707 56.6855 54.9954 56.6855 60.2949ZM40.4648 60.2949C40.4648 64.5775 40.9017 67.6354 41.7754 69.4688C42.6634 71.3021 44.0742 72.2188 46.0078 72.2188C47.9414 72.2188 49.3522 71.2878 50.2402 69.4258C51.1426 67.5638 51.5938 64.5202 51.5938 60.2949C51.5938 56.084 51.1426 53.0404 50.2402 51.1641C49.3522 49.2734 47.9414 48.3281 46.0078 48.3281C44.0742 48.3281 42.6634 49.252 41.7754 51.0996C40.9017 52.9473 40.4648 56.0124 40.4648 60.2949ZM64.5918 54C64.5918 56.1341 64.7995 57.724 65.2148 58.7695C65.6302 59.8151 66.3105 60.3379 67.2559 60.3379C69.1465 60.3379 70.0918 58.2253 70.0918 54C70.0918 49.7747 69.1465 47.6621 67.2559 47.6621C66.3105 47.6621 65.6302 48.1849 65.2148 49.2305C64.7995 50.276 64.5918 51.8659 64.5918 54ZM74.2598 53.957C74.2598 57.2513 73.6654 59.7292 72.4766 61.3906C71.3021 63.0378 69.5618 63.8613 67.2559 63.8613C65.0788 63.8613 63.3887 63.0091 62.1855 61.3047C60.9967 59.5859 60.4023 57.1367 60.4023 53.957C60.4023 47.4115 62.6868 44.1387 67.2559 44.1387C69.5046 44.1387 71.2305 44.9909 72.4336 46.6953C73.651 48.3854 74.2598 50.806 74.2598 53.957ZM85.0449 66.5469C85.0449 68.681 85.2526 70.278 85.668 71.3379C86.0977 72.3978 86.7852 72.9277 87.7305 72.9277C89.6068 72.9277 90.5449 70.8008 90.5449 66.5469C90.5449 62.3503 89.6068 60.252 87.7305 60.252C86.7852 60.252 86.0977 60.7676 85.668 61.7988C85.2526 62.8301 85.0449 64.4128 85.0449 66.5469ZM94.7129 66.5469C94.7129 69.8411 94.1185 72.3118 92.9297 73.959C91.7409 75.6061 90.0078 76.4297 87.7305 76.4297C85.5534 76.4297 83.8633 75.5846 82.6602 73.8945C81.457 72.1901 80.8555 69.7409 80.8555 66.5469C80.8555 60.0013 83.1471 56.7285 87.7305 56.7285C89.9362 56.7285 91.6478 57.5736 92.8652 59.2637C94.097 60.9538 94.7129 63.3815 94.7129 66.5469ZM88.332 44.5898L70.9082 76H66.7402L84.1641 44.5898H88.332Z" fill="white"/>
<path d="M37.6953 95V83.5781H39.0234V95H37.6953ZM47.8281 95V89.4609C47.8281 88.763 47.6693 88.2422 47.3516 87.8984C47.0339 87.5547 46.5365 87.3828 45.8594 87.3828C44.9635 87.3828 44.3073 87.625 43.8906 88.1094C43.474 88.5938 43.2656 89.3932 43.2656 90.5078V95H41.9688V86.4375H43.0234L43.2344 87.6094H43.2969C43.5625 87.1875 43.9349 86.862 44.4141 86.6328C44.8932 86.3984 45.4271 86.2812 46.0156 86.2812C47.0469 86.2812 47.8229 86.5312 48.3438 87.0312C48.8646 87.526 49.125 88.3203 49.125 89.4141V95H47.8281ZM54.5625 94.0859C54.7917 94.0859 55.013 94.0703 55.2266 94.0391C55.4401 94.0026 55.6094 93.9661 55.7344 93.9297V94.9219C55.5938 94.9896 55.3854 95.0443 55.1094 95.0859C54.8385 95.1328 54.5938 95.1562 54.375 95.1562C52.7188 95.1562 51.8906 94.2839 51.8906 92.5391V87.4453H50.6641V86.8203L51.8906 86.2812L52.4375 84.4531H53.1875V86.4375H55.6719V87.4453H53.1875V92.4844C53.1875 93 53.3099 93.3958 53.5547 93.6719C53.7995 93.9479 54.1354 94.0859 54.5625 94.0859ZM61.0703 95.1562C59.8047 95.1562 58.8047 94.7708 58.0703 94C57.3411 93.2292 56.9766 92.1589 56.9766 90.7891C56.9766 89.4089 57.3151 88.3125 57.9922 87.5C58.6745 86.6875 59.5885 86.2812 60.7344 86.2812C61.8073 86.2812 62.6562 86.6354 63.2812 87.3438C63.9062 88.0469 64.2188 88.9766 64.2188 90.1328V90.9531H58.3203C58.3464 91.9583 58.599 92.7214 59.0781 93.2422C59.5625 93.763 60.2422 94.0234 61.1172 94.0234C62.0391 94.0234 62.9505 93.8307 63.8516 93.4453V94.6016C63.3932 94.7995 62.9583 94.9401 62.5469 95.0234C62.1406 95.112 61.6484 95.1562 61.0703 95.1562ZM60.7188 87.3672C60.0312 87.3672 59.4818 87.5911 59.0703 88.0391C58.6641 88.487 58.4245 89.1068 58.3516 89.8984H62.8281C62.8281 89.0807 62.6458 88.4557 62.2812 88.0234C61.9167 87.5859 61.3958 87.3672 60.7188 87.3672ZM70.3438 86.2812C70.724 86.2812 71.0651 86.3125 71.3672 86.375L71.1875 87.5781C70.8333 87.5 70.5208 87.4609 70.25 87.4609C69.5573 87.4609 68.9635 87.7422 68.4688 88.3047C67.9792 88.8672 67.7344 89.5677 67.7344 90.4062V95H66.4375V86.4375H67.5078L67.6562 88.0234H67.7188C68.0365 87.4661 68.4193 87.0365 68.8672 86.7344C69.3151 86.4323 69.8073 86.2812 70.3438 86.2812ZM76.5859 95.1562C75.3203 95.1562 74.3203 94.7708 73.5859 94C72.8568 93.2292 72.4922 92.1589 72.4922 90.7891C72.4922 89.4089 72.8307 88.3125 73.5078 87.5C74.1901 86.6875 75.1042 86.2812 76.25 86.2812C77.3229 86.2812 78.1719 86.6354 78.7969 87.3438C79.4219 88.0469 79.7344 88.9766 79.7344 90.1328V90.9531H73.8359C73.862 91.9583 74.1146 92.7214 74.5938 93.2422C75.0781 93.763 75.7578 94.0234 76.6328 94.0234C77.5547 94.0234 78.4661 93.8307 79.3672 93.4453V94.6016C78.9089 94.7995 78.474 94.9401 78.0625 95.0234C77.6562 95.112 77.1641 95.1562 76.5859 95.1562ZM76.2344 87.3672C75.5469 87.3672 74.9974 87.5911 74.5859 88.0391C74.1797 88.487 73.9401 89.1068 73.8672 89.8984H78.3438C78.3438 89.0807 78.1615 88.4557 77.7969 88.0234C77.4323 87.5859 76.9115 87.3672 76.2344 87.3672ZM87.4766 92.6641C87.4766 93.4609 87.1797 94.0755 86.5859 94.5078C85.9922 94.9401 85.1589 95.1562 84.0859 95.1562C82.9505 95.1562 82.0651 94.9766 81.4297 94.6172V93.4141C81.8411 93.6224 82.2812 93.7865 82.75 93.9062C83.224 94.026 83.6797 94.0859 84.1172 94.0859C84.7943 94.0859 85.3151 93.9792 85.6797 93.7656C86.0443 93.5469 86.2266 93.2161 86.2266 92.7734C86.2266 92.4401 86.0807 92.1562 85.7891 91.9219C85.5026 91.6823 84.9401 91.401 84.1016 91.0781C83.3047 90.7812 82.737 90.5234 82.3984 90.3047C82.0651 90.0807 81.8151 89.8281 81.6484 89.5469C81.487 89.2656 81.4062 88.9297 81.4062 88.5391C81.4062 87.8411 81.6901 87.2917 82.2578 86.8906C82.8255 86.4844 83.6042 86.2812 84.5938 86.2812C85.5156 86.2812 86.4167 86.4688 87.2969 86.8438L86.8359 87.8984C85.9766 87.5443 85.1979 87.3672 84.5 87.3672C83.8854 87.3672 83.4219 87.4635 83.1094 87.6562C82.7969 87.849 82.6406 88.1146 82.6406 88.4531C82.6406 88.6823 82.6979 88.8776 82.8125 89.0391C82.9323 89.2005 83.1224 89.3542 83.3828 89.5C83.6432 89.6458 84.1432 89.8568 84.8828 90.1328C85.8984 90.5026 86.5833 90.875 86.9375 91.25C87.2969 91.625 87.4766 92.0964 87.4766 92.6641ZM92.3594 94.0859C92.5885 94.0859 92.8099 94.0703 93.0234 94.0391C93.237 94.0026 93.4062 93.9661 93.5312 93.9297V94.9219C93.3906 94.9896 93.1823 95.0443 92.9062 95.0859C92.6354 95.1328 92.3906 95.1562 92.1719 95.1562C90.5156 95.1562 89.6875 94.2839 89.6875 92.5391V87.4453H88.4609V86.8203L89.6875 86.2812L90.2344 84.4531H90.9844V86.4375H93.4688V87.4453H90.9844V92.4844C90.9844 93 91.1068 93.3958 91.3516 93.6719C91.5964 93.9479 91.9323 94.0859 92.3594 94.0859Z" fill="white"/>
</svg>
