<svg width="214" height="86" viewBox="0 0 214 86" fill="none" xmlns="http://www.w3.org/2000/svg">
<g filter="url(#filter0_d_16_106)">
<rect x="20" y="10" width="174" height="46" rx="6" fill="white"/>
</g>
<path d="M30 34V42H48V34" stroke="#8376E2" stroke-linecap="round" stroke-linejoin="round"/>
<path d="M39 24V36M39 36L42 33M39 36L36 33" stroke="#8376E2" stroke-linecap="round" stroke-linejoin="round"/>
<path d="M65.4473 32.9072C65.4473 34.557 64.9893 35.8193 64.0732 36.6943C63.1572 37.5648 61.8379 38 60.1152 38H57.3193V28.0059H60.4092C61.9997 28.0059 63.237 28.4342 64.1211 29.291C65.0052 30.1478 65.4473 31.3532 65.4473 32.9072ZM63.7246 32.9619C63.7246 30.5693 62.6058 29.373 60.3682 29.373H58.9531V36.626H60.1152C62.5215 36.626 63.7246 35.4046 63.7246 32.9619ZM70.7314 38.1367C69.5557 38.1367 68.6351 37.7949 67.9697 37.1113C67.3089 36.4232 66.9785 35.4775 66.9785 34.2744C66.9785 33.0394 67.2861 32.0687 67.9014 31.3623C68.5166 30.6559 69.362 30.3027 70.4375 30.3027C71.4355 30.3027 72.224 30.6058 72.8027 31.2119C73.3815 31.818 73.6709 32.652 73.6709 33.7139V34.582H68.6328C68.6556 35.3158 68.8538 35.8809 69.2275 36.2773C69.6012 36.6693 70.1276 36.8652 70.8066 36.8652C71.2533 36.8652 71.668 36.8242 72.0508 36.7422C72.4382 36.6556 72.8529 36.5143 73.2949 36.3184V37.624C72.903 37.8109 72.5065 37.943 72.1055 38.0205C71.7044 38.098 71.2464 38.1367 70.7314 38.1367ZM70.4375 31.5195C69.9271 31.5195 69.5169 31.6813 69.207 32.0049C68.9017 32.3285 68.7194 32.8001 68.6602 33.4199H72.0918C72.0827 32.7956 71.9323 32.3239 71.6406 32.0049C71.349 31.6813 70.9479 31.5195 70.4375 31.5195ZM79.3311 38.1367C78.374 38.1367 77.6312 37.7926 77.1025 37.1045H77.0068C77.0706 37.7425 77.1025 38.1299 77.1025 38.2666V41.3633H75.4961V30.4395H76.7949C76.8314 30.5807 76.9066 30.918 77.0205 31.4512H77.1025C77.6038 30.6855 78.3558 30.3027 79.3584 30.3027C80.3018 30.3027 81.0355 30.6445 81.5596 31.3281C82.0882 32.0117 82.3525 32.971 82.3525 34.2061C82.3525 35.4411 82.0837 36.4049 81.5459 37.0977C81.0127 37.7904 80.2744 38.1367 79.3311 38.1367ZM78.9414 31.6152C78.3034 31.6152 77.8363 31.8021 77.54 32.1758C77.2484 32.5495 77.1025 33.1465 77.1025 33.9668V34.2061C77.1025 35.1266 77.2484 35.7943 77.54 36.209C77.8317 36.6191 78.3079 36.8242 78.9688 36.8242C79.5247 36.8242 79.9531 36.5964 80.2539 36.1406C80.5547 35.6849 80.7051 35.0355 80.7051 34.1924C80.7051 33.3447 80.5547 32.7044 80.2539 32.2715C79.9577 31.834 79.5202 31.6152 78.9414 31.6152ZM90.9248 34.2061C90.9248 35.4411 90.6081 36.4049 89.9746 37.0977C89.3411 37.7904 88.4593 38.1367 87.3291 38.1367C86.6227 38.1367 85.9984 37.9772 85.4561 37.6582C84.9137 37.3392 84.4967 36.8812 84.2051 36.2842C83.9134 35.6872 83.7676 34.9945 83.7676 34.2061C83.7676 32.9801 84.082 32.0231 84.7109 31.335C85.3398 30.6468 86.2262 30.3027 87.3701 30.3027C88.4639 30.3027 89.3298 30.6559 89.9678 31.3623C90.6058 32.0641 90.9248 33.012 90.9248 34.2061ZM85.4219 34.2061C85.4219 35.9515 86.0667 36.8242 87.3564 36.8242C88.6325 36.8242 89.2705 35.9515 89.2705 34.2061C89.2705 32.4788 88.6279 31.6152 87.3428 31.6152C86.6683 31.6152 86.1784 31.8385 85.873 32.2852C85.5723 32.7318 85.4219 33.3721 85.4219 34.2061ZM97.8564 35.8467C97.8564 36.585 97.5876 37.1523 97.0498 37.5488C96.512 37.9408 95.7419 38.1367 94.7393 38.1367C93.7321 38.1367 92.9232 37.984 92.3125 37.6787V36.291C93.2012 36.7012 94.0283 36.9062 94.7939 36.9062C95.7829 36.9062 96.2773 36.6077 96.2773 36.0107C96.2773 35.8193 96.2227 35.6598 96.1133 35.5322C96.0039 35.4046 95.8239 35.2725 95.5732 35.1357C95.3226 34.999 94.974 34.8441 94.5273 34.6709C93.6569 34.3337 93.0667 33.9964 92.7568 33.6592C92.4515 33.3219 92.2988 32.8844 92.2988 32.3467C92.2988 31.6995 92.5586 31.1982 93.0781 30.8428C93.6022 30.4827 94.3132 30.3027 95.2109 30.3027C96.0996 30.3027 96.9404 30.4827 97.7334 30.8428L97.2139 32.0527C96.3981 31.7155 95.7122 31.5469 95.1562 31.5469C94.3086 31.5469 93.8848 31.7884 93.8848 32.2715C93.8848 32.5085 93.9941 32.709 94.2129 32.873C94.4362 33.0371 94.9193 33.2627 95.6621 33.5498C96.2865 33.7913 96.7399 34.0124 97.0225 34.2129C97.305 34.4134 97.5146 34.6458 97.6514 34.9102C97.7881 35.1699 97.8564 35.4821 97.8564 35.8467ZM101.206 38H99.5996V30.4395H101.206V38ZM99.5039 28.4365C99.5039 28.1494 99.5814 27.9284 99.7363 27.7734C99.8958 27.6185 100.121 27.541 100.413 27.541C100.696 27.541 100.914 27.6185 101.069 27.7734C101.229 27.9284 101.309 28.1494 101.309 28.4365C101.309 28.71 101.229 28.9264 101.069 29.0859C100.914 29.2409 100.696 29.3184 100.413 29.3184C100.121 29.3184 99.8958 29.2409 99.7363 29.0859C99.5814 28.9264 99.5039 28.71 99.5039 28.4365ZM106.326 36.8379C106.718 36.8379 107.11 36.7764 107.502 36.6533V37.8633C107.324 37.9408 107.094 38.0046 106.812 38.0547C106.534 38.1094 106.244 38.1367 105.943 38.1367C104.421 38.1367 103.66 37.3346 103.66 35.7305V31.6562H102.628V30.9453L103.735 30.3574L104.282 28.7578H105.273V30.4395H107.427V31.6562H105.273V35.7031C105.273 36.0905 105.369 36.3776 105.561 36.5645C105.757 36.7467 106.012 36.8379 106.326 36.8379ZM112.321 38.1367C111.146 38.1367 110.225 37.7949 109.56 37.1113C108.899 36.4232 108.568 35.4775 108.568 34.2744C108.568 33.0394 108.876 32.0687 109.491 31.3623C110.106 30.6559 110.952 30.3027 112.027 30.3027C113.025 30.3027 113.814 30.6058 114.393 31.2119C114.971 31.818 115.261 32.652 115.261 33.7139V34.582H110.223C110.245 35.3158 110.444 35.8809 110.817 36.2773C111.191 36.6693 111.717 36.8652 112.396 36.8652C112.843 36.8652 113.258 36.8242 113.641 36.7422C114.028 36.6556 114.443 36.5143 114.885 36.3184V37.624C114.493 37.8109 114.096 37.943 113.695 38.0205C113.294 38.098 112.836 38.1367 112.321 38.1367ZM112.027 31.5195C111.517 31.5195 111.107 31.6813 110.797 32.0049C110.492 32.3285 110.309 32.8001 110.25 33.4199H113.682C113.673 32.7956 113.522 32.3239 113.23 32.0049C112.939 31.6813 112.538 31.5195 112.027 31.5195Z" fill="#31456A"/>
<path d="M142.082 34.9307C142.082 35.5505 141.85 36.0632 141.385 36.4688C140.92 36.8698 140.271 37.1227 139.437 37.2275V38.8135H138.555V37.2891C138.044 37.2891 137.55 37.2503 137.071 37.1729C136.593 37.0908 136.201 36.9792 135.896 36.8379V35.7715C136.274 35.9401 136.709 36.0791 137.201 36.1885C137.698 36.2933 138.149 36.3457 138.555 36.3457V33.3379C137.62 33.0417 136.964 32.6976 136.586 32.3057C136.212 31.9137 136.025 31.4079 136.025 30.7881C136.025 30.1911 136.256 29.7012 136.716 29.3184C137.181 28.9355 137.794 28.7031 138.555 28.6211V27.377H139.437V28.6074C140.275 28.6302 141.084 28.7988 141.863 29.1133L141.508 30.0088C140.829 29.7399 140.138 29.5804 139.437 29.5303V32.4971C140.152 32.7249 140.688 32.9482 141.043 33.167C141.398 33.3812 141.66 33.6296 141.829 33.9121C141.998 34.1901 142.082 34.5296 142.082 34.9307ZM140.92 35.0195C140.92 34.6914 140.817 34.4271 140.612 34.2266C140.412 34.0215 140.02 33.8187 139.437 33.6182V36.2773C140.425 36.1406 140.92 35.7214 140.92 35.0195ZM137.181 30.7744C137.181 31.1208 137.283 31.3988 137.488 31.6084C137.693 31.818 138.049 32.0163 138.555 32.2031V29.5576C138.104 29.6305 137.762 29.7741 137.529 29.9883C137.297 30.1979 137.181 30.46 137.181 30.7744ZM149.889 30.3574C149.889 30.9954 149.709 31.5173 149.349 31.9229C148.993 32.3285 148.487 32.5996 147.831 32.7363V32.791C148.633 32.8913 149.228 33.1465 149.615 33.5566C150.003 33.9668 150.196 34.5046 150.196 35.1699C150.196 36.1224 149.866 36.8561 149.205 37.3711C148.544 37.8815 147.605 38.1367 146.389 38.1367C145.86 38.1367 145.375 38.0957 144.933 38.0137C144.495 37.9362 144.069 37.7972 143.654 37.5967V36.5166C144.087 36.7308 144.548 36.8949 145.035 37.0088C145.527 37.1182 145.992 37.1729 146.43 37.1729C148.157 37.1729 149.021 36.4961 149.021 35.1426C149.021 33.9303 148.068 33.3242 146.163 33.3242H145.179V32.3467H146.177C146.956 32.3467 147.574 32.1758 148.029 31.834C148.485 31.4876 148.713 31.0091 148.713 30.3984C148.713 29.9108 148.544 29.528 148.207 29.25C147.874 28.972 147.421 28.833 146.847 28.833C146.409 28.833 145.997 28.8923 145.609 29.0107C145.222 29.1292 144.78 29.348 144.283 29.667L143.709 28.9014C144.119 28.5778 144.591 28.3249 145.124 28.1426C145.662 27.9557 146.227 27.8623 146.819 27.8623C147.79 27.8623 148.544 28.0856 149.082 28.5322C149.62 28.9743 149.889 29.5827 149.889 30.3574ZM158.276 38H151.707V37.0225L154.339 34.377C155.141 33.5658 155.67 32.987 155.925 32.6406C156.18 32.2943 156.371 31.957 156.499 31.6289C156.627 31.3008 156.69 30.9476 156.69 30.5693C156.69 30.0361 156.529 29.6146 156.205 29.3047C155.882 28.9902 155.433 28.833 154.858 28.833C154.444 28.833 154.049 28.9014 153.676 29.0381C153.307 29.1748 152.894 29.4232 152.438 29.7832L151.837 29.0107C152.757 28.2451 153.76 27.8623 154.845 27.8623C155.784 27.8623 156.52 28.1038 157.053 28.5869C157.586 29.0654 157.853 29.7103 157.853 30.5215C157.853 31.1549 157.675 31.7816 157.319 32.4014C156.964 33.0212 156.299 33.805 155.323 34.7529L153.136 36.8926V36.9473H158.276V38ZM166.343 32.9893C166.343 34.7165 166.069 36.0062 165.522 36.8584C164.98 37.7106 164.148 38.1367 163.027 38.1367C161.952 38.1367 161.134 37.7015 160.573 36.8311C160.013 35.9561 159.732 34.6755 159.732 32.9893C159.732 31.2484 160.004 29.9564 160.546 29.1133C161.088 28.2702 161.915 27.8486 163.027 27.8486C164.112 27.8486 164.935 28.2884 165.495 29.168C166.06 30.0475 166.343 31.3213 166.343 32.9893ZM160.881 32.9893C160.881 34.443 161.052 35.5026 161.394 36.168C161.735 36.8288 162.28 37.1592 163.027 37.1592C163.784 37.1592 164.331 36.8242 164.668 36.1543C165.01 35.4798 165.181 34.4248 165.181 32.9893C165.181 31.5537 165.01 30.5033 164.668 29.8379C164.331 29.168 163.784 28.833 163.027 28.833C162.28 28.833 161.735 29.1634 161.394 29.8242C161.052 30.4805 160.881 31.5355 160.881 32.9893ZM174.354 32.9893C174.354 34.7165 174.081 36.0062 173.534 36.8584C172.992 37.7106 172.16 38.1367 171.039 38.1367C169.964 38.1367 169.146 37.7015 168.585 36.8311C168.024 35.9561 167.744 34.6755 167.744 32.9893C167.744 31.2484 168.015 29.9564 168.558 29.1133C169.1 28.2702 169.927 27.8486 171.039 27.8486C172.124 27.8486 172.946 28.2884 173.507 29.168C174.072 30.0475 174.354 31.3213 174.354 32.9893ZM168.893 32.9893C168.893 34.443 169.063 35.5026 169.405 36.168C169.747 36.8288 170.292 37.1592 171.039 37.1592C171.796 37.1592 172.342 36.8242 172.68 36.1543C173.021 35.4798 173.192 34.4248 173.192 32.9893C173.192 31.5537 173.021 30.5033 172.68 29.8379C172.342 29.168 171.796 28.833 171.039 28.833C170.292 28.833 169.747 29.1634 169.405 29.8242C169.063 30.4805 168.893 31.5355 168.893 32.9893ZM182.366 32.9893C182.366 34.7165 182.093 36.0062 181.546 36.8584C181.004 37.7106 180.172 38.1367 179.051 38.1367C177.975 38.1367 177.157 37.7015 176.597 36.8311C176.036 35.9561 175.756 34.6755 175.756 32.9893C175.756 31.2484 176.027 29.9564 176.569 29.1133C177.112 28.2702 177.939 27.8486 179.051 27.8486C180.135 27.8486 180.958 28.2884 181.519 29.168C182.084 30.0475 182.366 31.3213 182.366 32.9893ZM176.904 32.9893C176.904 34.443 177.075 35.5026 177.417 36.168C177.759 36.8288 178.303 37.1592 179.051 37.1592C179.807 37.1592 180.354 36.8242 180.691 36.1543C181.033 35.4798 181.204 34.4248 181.204 32.9893C181.204 31.5537 181.033 30.5033 180.691 29.8379C180.354 29.168 179.807 28.833 179.051 28.833C178.303 28.833 177.759 29.1634 177.417 29.8242C177.075 30.4805 176.904 31.5355 176.904 32.9893Z" fill="#4AB5E3"/>
<defs>
<filter id="filter0_d_16_106" x="0" y="0" width="214" height="86" filterUnits="userSpaceOnUse" color-interpolation-filters="sRGB">
<feFlood flood-opacity="0" result="BackgroundImageFix"/>
<feColorMatrix in="SourceAlpha" type="matrix" values="0 0 0 0 0 0 0 0 0 0 0 0 0 0 0 0 0 0 127 0" result="hardAlpha"/>
<feOffset dy="10"/>
<feGaussianBlur stdDeviation="10"/>
<feComposite in2="hardAlpha" operator="out"/>
<feColorMatrix type="matrix" values="0 0 0 0 0 0 0 0 0 0 0 0 0 0 0 0 0 0 0.07 0"/>
<feBlend mode="normal" in2="BackgroundImageFix" result="effect1_dropShadow_16_106"/>
<feBlend mode="normal" in="SourceGraphic" in2="effect1_dropShadow_16_106" result="shape"/>
</filter>
</defs>
</svg>
