<svg width="124" height="68" viewBox="0 0 124 68" fill="none" xmlns="http://www.w3.org/2000/svg">
<rect width="124" height="68" rx="10" fill="#439F90"/>
<path d="M52.2666 28.9033C52.2666 29.5641 52.0251 30.1087 51.542 30.5371C51.0589 30.9655 50.3617 31.2298 49.4502 31.3301V32.8135H48.541V31.3711C47.4108 31.3529 46.4834 31.1797 45.7588 30.8516V29.4092C46.1507 29.6006 46.6087 29.7624 47.1328 29.8945C47.6569 30.0221 48.1263 30.0882 48.541 30.0928V27.5361L47.9668 27.3242C47.2194 27.0371 46.6725 26.6953 46.3262 26.2988C45.9844 25.8978 45.8135 25.4033 45.8135 24.8154C45.8135 24.1865 46.0573 23.6693 46.5449 23.2637C47.0371 22.8581 47.7025 22.612 48.541 22.5254V21.377H49.4502V22.5049C50.3753 22.5368 51.2526 22.7236 52.082 23.0654L51.583 24.3164C50.8675 24.0339 50.1566 23.8652 49.4502 23.8105V26.2988L49.9697 26.4971C50.8356 26.8298 51.4349 27.1807 51.7676 27.5498C52.1003 27.9189 52.2666 28.3701 52.2666 28.9033ZM50.6533 29.0059C50.6533 28.7415 50.5599 28.5251 50.373 28.3564C50.1908 28.1833 49.8831 28.0169 49.4502 27.8574V30.0381C50.2523 29.915 50.6533 29.571 50.6533 29.0059ZM47.4199 24.8018C47.4199 25.0615 47.4997 25.278 47.6592 25.4512C47.8232 25.6243 48.1172 25.7952 48.541 25.9639V23.8379C48.1764 23.8926 47.8984 24.0042 47.707 24.1729C47.5156 24.3415 47.4199 24.5511 47.4199 24.8018ZM58.3301 32H56.7236V25.5469C56.7236 24.7767 56.7419 24.166 56.7783 23.7148C56.6735 23.8242 56.5436 23.945 56.3887 24.0771C56.2383 24.2093 55.7279 24.6286 54.8574 25.335L54.0508 24.3164L56.9902 22.0059H58.3301V32ZM61.9053 31.1455C61.9053 30.8128 61.9919 30.5576 62.165 30.3799C62.3382 30.2021 62.5889 30.1133 62.917 30.1133C63.2497 30.1133 63.5026 30.2067 63.6758 30.3936C63.849 30.5758 63.9355 30.8265 63.9355 31.1455C63.9355 31.4691 63.8467 31.7266 63.6689 31.918C63.4958 32.1048 63.2451 32.1982 62.917 32.1982C62.5889 32.1982 62.3382 32.1048 62.165 31.918C61.9919 31.7311 61.9053 31.4736 61.9053 31.1455ZM71.8652 24.3027C71.8652 24.9362 71.6807 25.4648 71.3115 25.8887C70.9424 26.3079 70.4229 26.5905 69.7529 26.7363V26.791C70.555 26.8913 71.1566 27.1419 71.5576 27.543C71.9587 27.9395 72.1592 28.4681 72.1592 29.1289C72.1592 30.0905 71.8197 30.8333 71.1406 31.3574C70.4616 31.877 69.4954 32.1367 68.2422 32.1367C67.1348 32.1367 66.2005 31.9567 65.4395 31.5967V30.168C65.8633 30.3776 66.3122 30.5394 66.7861 30.6533C67.2601 30.7673 67.7158 30.8242 68.1533 30.8242C68.9281 30.8242 69.5068 30.6807 69.8896 30.3936C70.2725 30.1064 70.4639 29.6621 70.4639 29.0605C70.4639 28.5273 70.252 28.1354 69.8281 27.8848C69.4043 27.6341 68.7389 27.5088 67.832 27.5088H66.9639V26.2031H67.8457C69.4408 26.2031 70.2383 25.6517 70.2383 24.5488C70.2383 24.1204 70.0993 23.79 69.8213 23.5576C69.5433 23.3252 69.1331 23.209 68.5908 23.209C68.2126 23.209 67.848 23.2637 67.4971 23.373C67.1462 23.4779 66.7314 23.6852 66.2529 23.9951L65.4668 22.874C66.3828 22.1995 67.4469 21.8623 68.6592 21.8623C69.6663 21.8623 70.4525 22.0788 71.0176 22.5117C71.5827 22.9447 71.8652 23.5417 71.8652 24.3027ZM78.1816 32H76.5752V25.5469C76.5752 24.7767 76.5934 24.166 76.6299 23.7148C76.5251 23.8242 76.3952 23.945 76.2402 24.0771C76.0898 24.2093 75.5794 24.6286 74.709 25.335L73.9023 24.3164L76.8418 22.0059H78.1816V32ZM88.2373 27.0029C88.2373 28.7393 87.957 30.029 87.3965 30.8721C86.8405 31.7152 85.9883 32.1367 84.8398 32.1367C83.7279 32.1367 82.8848 31.7015 82.3105 30.8311C81.7363 29.9606 81.4492 28.6846 81.4492 27.0029C81.4492 25.2393 81.7272 23.9404 82.2832 23.1064C82.8438 22.2679 83.696 21.8486 84.8398 21.8486C85.9564 21.8486 86.8018 22.2861 87.376 23.1611C87.9502 24.0361 88.2373 25.3167 88.2373 27.0029ZM83.0762 27.0029C83.0762 28.3656 83.2152 29.3385 83.4932 29.9219C83.7757 30.5052 84.2246 30.7969 84.8398 30.7969C85.4551 30.7969 85.904 30.5007 86.1865 29.9082C86.4736 29.3158 86.6172 28.3473 86.6172 27.0029C86.6172 25.6631 86.4736 24.6947 86.1865 24.0977C85.904 23.4961 85.4551 23.1953 84.8398 23.1953C84.2246 23.1953 83.7757 23.4893 83.4932 24.0771C83.2152 24.665 83.0762 25.6403 83.0762 27.0029Z" fill="white"/>
<path d="M49.0078 44.4805C49.0078 44.9831 48.8255 45.375 48.4609 45.6562C48.0964 45.9375 47.6016 46.0781 46.9766 46.0781C46.2995 46.0781 45.7786 45.9909 45.4141 45.8164V45.1758C45.6484 45.2747 45.9036 45.3529 46.1797 45.4102C46.4557 45.4674 46.7292 45.4961 47 45.4961C47.4427 45.4961 47.776 45.4128 48 45.2461C48.224 45.0768 48.3359 44.8424 48.3359 44.543C48.3359 44.3451 48.2956 44.1836 48.2148 44.0586C48.1367 43.931 48.0039 43.8138 47.8164 43.707C47.6315 43.6003 47.349 43.4792 46.9688 43.3438C46.4375 43.1536 46.0573 42.9284 45.8281 42.668C45.6016 42.4076 45.4883 42.0677 45.4883 41.6484C45.4883 41.2083 45.6536 40.8581 45.9844 40.5977C46.3151 40.3372 46.7526 40.207 47.2969 40.207C47.8646 40.207 48.3867 40.3112 48.8633 40.5195L48.6562 41.0977C48.1849 40.8997 47.7266 40.8008 47.2812 40.8008C46.9297 40.8008 46.6549 40.8763 46.457 41.0273C46.2591 41.1784 46.1602 41.388 46.1602 41.6562C46.1602 41.8542 46.1966 42.0169 46.2695 42.1445C46.3424 42.2695 46.4648 42.3854 46.6367 42.4922C46.8112 42.5964 47.0768 42.7122 47.4336 42.8398C48.0326 43.0534 48.444 43.2826 48.668 43.5273C48.8945 43.7721 49.0078 44.0898 49.0078 44.4805ZM53.3594 46H50.1758V40.2891H53.3594V40.8789H50.8398V42.7188H53.207V43.3047H50.8398V45.4062H53.3594V46ZM57.0742 40.8008C56.4466 40.8008 55.9505 41.0104 55.5859 41.4297C55.224 41.8464 55.043 42.418 55.043 43.1445C55.043 43.8919 55.2174 44.4701 55.5664 44.8789C55.918 45.2852 56.418 45.4883 57.0664 45.4883C57.4648 45.4883 57.9193 45.4167 58.4297 45.2734V45.8555C58.0339 46.0039 57.5456 46.0781 56.9648 46.0781C56.1237 46.0781 55.474 45.8229 55.0156 45.3125C54.5599 44.8021 54.332 44.0768 54.332 43.1367C54.332 42.5482 54.4414 42.0326 54.6602 41.5898C54.8815 41.1471 55.1992 40.806 55.6133 40.5664C56.0299 40.3268 56.5195 40.207 57.082 40.207C57.681 40.207 58.2044 40.3164 58.6523 40.5352L58.3711 41.1055C57.9388 40.9023 57.5065 40.8008 57.0742 40.8008ZM63.9883 40.2891V43.9844C63.9883 44.6354 63.7917 45.1471 63.3984 45.5195C63.0052 45.8919 62.4648 46.0781 61.7773 46.0781C61.0898 46.0781 60.5573 45.8906 60.1797 45.5156C59.8047 45.1406 59.6172 44.625 59.6172 43.9688V40.2891H60.2812V44.0156C60.2812 44.4922 60.4115 44.8581 60.6719 45.1133C60.9323 45.3685 61.3151 45.4961 61.8203 45.4961C62.3021 45.4961 62.6732 45.3685 62.9336 45.1133C63.194 44.8555 63.3242 44.487 63.3242 44.0078V40.2891H63.9883ZM66.168 43.625V46H65.5039V40.2891H67.0703C67.7708 40.2891 68.2878 40.4232 68.6211 40.6914C68.957 40.9596 69.125 41.3633 69.125 41.9023C69.125 42.6576 68.7422 43.168 67.9766 43.4336L69.5273 46H68.7422L67.3594 43.625H66.168ZM66.168 43.0547H67.0781C67.5469 43.0547 67.8906 42.9622 68.1094 42.7773C68.3281 42.5898 68.4375 42.3099 68.4375 41.9375C68.4375 41.5599 68.3255 41.2878 68.1016 41.1211C67.8802 40.9544 67.5234 40.8711 67.0312 40.8711H66.168V43.0547ZM73.6328 46H70.4492V40.2891H73.6328V40.8789H71.1133V42.7188H73.4805V43.3047H71.1133V45.4062H73.6328V46ZM79.4609 43.0898C79.4609 44.0326 79.2044 44.7539 78.6914 45.2539C78.181 45.7513 77.4453 46 76.4844 46H74.9023V40.2891H76.6523C77.5404 40.2891 78.2305 40.5352 78.7227 41.0273C79.2148 41.5195 79.4609 42.207 79.4609 43.0898ZM78.7578 43.1133C78.7578 42.3685 78.5703 41.8073 78.1953 41.4297C77.8229 41.0521 77.2682 40.8633 76.5312 40.8633H75.5664V45.4258H76.375C77.1667 45.4258 77.7617 45.2318 78.1602 44.8438C78.5586 44.4531 78.7578 43.8763 78.7578 43.1133ZM83.4805 46H82.8164V40.2891H86V40.8789H83.4805V42.9688H85.8477V43.5586H83.4805V46ZM91.2617 40.2891V43.9844C91.2617 44.6354 91.0651 45.1471 90.6719 45.5195C90.2786 45.8919 89.7383 46.0781 89.0508 46.0781C88.3633 46.0781 87.8307 45.8906 87.4531 45.5156C87.0781 45.1406 86.8906 44.625 86.8906 43.9688V40.2891H87.5547V44.0156C87.5547 44.4922 87.6849 44.8581 87.9453 45.1133C88.2057 45.3685 88.5885 45.4961 89.0938 45.4961C89.5755 45.4961 89.9466 45.3685 90.207 45.1133C90.4674 44.8555 90.5977 44.487 90.5977 44.0078V40.2891H91.2617ZM97.2383 46H96.4805L93.3594 41.207H93.3281C93.3698 41.7695 93.3906 42.2852 93.3906 42.7539V46H92.7773V40.2891H93.5273L96.6406 45.0625H96.6719C96.6667 44.9922 96.6549 44.7669 96.6367 44.3867C96.6185 44.0039 96.612 43.7305 96.6172 43.5664V40.2891H97.2383V46ZM103.367 43.0898C103.367 44.0326 103.111 44.7539 102.598 45.2539C102.087 45.7513 101.352 46 100.391 46H98.8086V40.2891H100.559C101.447 40.2891 102.137 40.5352 102.629 41.0273C103.121 41.5195 103.367 42.207 103.367 43.0898ZM102.664 43.1133C102.664 42.3685 102.477 41.8073 102.102 41.4297C101.729 41.0521 101.174 40.8633 100.438 40.8633H99.4727V45.4258H100.281C101.073 45.4258 101.668 45.2318 102.066 44.8438C102.465 44.4531 102.664 43.8763 102.664 43.1133ZM107.867 44.4805C107.867 44.9831 107.685 45.375 107.32 45.6562C106.956 45.9375 106.461 46.0781 105.836 46.0781C105.159 46.0781 104.638 45.9909 104.273 45.8164V45.1758C104.508 45.2747 104.763 45.3529 105.039 45.4102C105.315 45.4674 105.589 45.4961 105.859 45.4961C106.302 45.4961 106.635 45.4128 106.859 45.2461C107.083 45.0768 107.195 44.8424 107.195 44.543C107.195 44.3451 107.155 44.1836 107.074 44.0586C106.996 43.931 106.863 43.8138 106.676 43.707C106.491 43.6003 106.208 43.4792 105.828 43.3438C105.297 43.1536 104.917 42.9284 104.688 42.668C104.461 42.4076 104.348 42.0677 104.348 41.6484C104.348 41.2083 104.513 40.8581 104.844 40.5977C105.174 40.3372 105.612 40.207 106.156 40.207C106.724 40.207 107.246 40.3112 107.723 40.5195L107.516 41.0977C107.044 40.8997 106.586 40.8008 106.141 40.8008C105.789 40.8008 105.514 40.8763 105.316 41.0273C105.118 41.1784 105.02 41.388 105.02 41.6562C105.02 41.8542 105.056 42.0169 105.129 42.1445C105.202 42.2695 105.324 42.3854 105.496 42.4922C105.671 42.5964 105.936 42.7122 106.293 42.8398C106.892 43.0534 107.303 43.2826 107.527 43.5273C107.754 43.7721 107.867 44.0898 107.867 44.4805Z" fill="white"/>
<path d="M34 22.925C27.75 22.925 25.25 21.3 24 20C22.75 21.3 20.25 22.925 14 22.925V33.325C14 36.25 15.25 41.45 24 46C32.75 41.45 34 36.25 34 33.325V22.925Z" fill="white"/>
<path d="M24.6381 38.4703V39.4602C24.6381 39.758 24.396 39.9993 24.0971 39.9993C23.7938 40.0143 23.5358 39.781 23.5216 39.4788C23.5216 39.4726 23.5207 39.4664 23.5207 39.4602V38.488C22.2889 38.4483 21.1112 37.9754 20.1952 37.1535C20.0692 37.0262 19.9992 36.8548 20.0001 36.6763C19.9947 36.268 20.3096 35.9268 20.7184 35.8985C20.8798 35.902 21.0359 35.9577 21.1618 36.0576C21.8304 36.6179 22.6463 36.9759 23.5118 37.0917V33.5564C21.8712 33.1146 20.1597 32.5577 20.1597 30.5515C20.1597 28.9165 21.5165 27.688 23.5118 27.5466V26.5391C23.5163 26.243 23.7557 26.0044 24.0528 26C24.3516 26 24.5937 26.2413 24.5937 26.5391V27.5908C25.6162 27.6492 26.5917 28.0407 27.3694 28.7044C27.4954 28.8317 27.5654 29.0032 27.5645 29.1817C27.5601 29.5979 27.2196 29.9329 26.8019 29.9329C26.6715 29.9311 26.5456 29.8913 26.4383 29.818C25.9 29.4079 25.2704 29.1348 24.6026 29.0226V32.1247C26.2432 32.5666 27.9991 33.2029 27.9991 35.2887C28.0345 36.8442 27.0591 38.3113 24.6381 38.4703ZM23.5207 28.9519C22.4831 29.0314 21.8003 29.6236 21.8003 30.4455C21.8003 31.2674 22.5541 31.5591 23.5207 31.8419V28.9519ZM24.6381 33.8923V37.1093C25.9505 36.9502 26.4117 36.1548 26.4117 35.4831C26.4205 34.5551 25.6402 34.1751 24.6381 33.8923Z" fill="#439F90"/>
</svg>
