<svg width="250" height="150" viewBox="0 0 250 150" fill="none" xmlns="http://www.w3.org/2000/svg">
<rect width="250" height="150" rx="20" fill="url(#paint0_linear_16_66)"/>
<mask id="mask0_16_66" style="mask-type:alpha" maskUnits="userSpaceOnUse" x="0" y="0" width="250" height="150">
<rect width="250" height="150" rx="20" fill="url(#paint1_linear_16_66)"/>
</mask>
<g mask="url(#mask0_16_66)">
<circle cx="39.5" cy="-4.5" r="38" stroke="#9487EA"/>
<circle cx="46.5" cy="-8.5" r="38" stroke="#9487EA"/>
<circle cx="53.5" cy="-12.5" r="38" stroke="#9487EA"/>
<circle cx="60.5" cy="-16.5" r="38" stroke="#9487EA"/>
<circle cx="67.5" cy="-20.5" r="38" stroke="#9487EA"/>
<circle cx="157.995" cy="117.277" r="38" transform="rotate(65 157.995 117.277)" stroke="#6657D2"/>
<circle cx="164.578" cy="121.93" r="38" transform="rotate(65 164.578 121.93)" stroke="#6657D2"/>
<circle cx="171.162" cy="126.584" r="38" transform="rotate(65 171.162 126.584)" stroke="#6657D2"/>
<circle cx="177.745" cy="131.238" r="38" transform="rotate(65 177.745 131.238)" stroke="#6657D2"/>
<circle cx="184.329" cy="135.891" r="38" transform="rotate(65 184.329 135.891)" stroke="#6657D2"/>
<circle cx="190.912" cy="140.545" r="38" transform="rotate(65 190.912 140.545)" stroke="#6657D2"/>
<circle cx="197.496" cy="145.199" r="38" transform="rotate(65 197.496 145.199)" stroke="#6657D2"/>
<circle cx="204.079" cy="149.853" r="38" transform="rotate(65 204.079 149.853)" stroke="#6657D2"/>
</g>
<path d="M21.0586 102.861H21.9521L19.3789 110H18.5586L16 102.861H16.8789L18.5195 107.48C18.7083 108.011 18.8581 108.527 18.9688 109.028C19.0859 108.501 19.2389 107.975 19.4277 107.451L21.0586 102.861ZM27.4258 110L26.5371 107.729H23.6758L22.7969 110H21.957L24.7793 102.832H25.4775L28.2852 110H27.4258ZM26.2783 106.982L25.4482 104.771C25.3408 104.491 25.2301 104.147 25.1162 103.74C25.0446 104.053 24.9421 104.396 24.8086 104.771L23.9688 106.982H26.2783ZM29.2666 110V102.861H30.0967V109.248H33.2461V110H29.2666ZM34.4619 110V102.861H35.292V110H34.4619ZM42.9531 106.362C42.9531 107.541 42.6325 108.442 41.9912 109.067C41.3532 109.689 40.4336 110 39.2324 110H37.2549V102.861H39.4424C40.5524 102.861 41.415 103.169 42.0303 103.784C42.6455 104.399 42.9531 105.259 42.9531 106.362ZM42.0742 106.392C42.0742 105.461 41.8398 104.759 41.3711 104.287C40.9056 103.815 40.2122 103.579 39.291 103.579H38.085V109.282H39.0957C40.0853 109.282 40.8291 109.04 41.3271 108.555C41.8252 108.066 42.0742 107.345 42.0742 106.392ZM49.3447 110H48.5146V103.599H46.2539V102.861H51.6055V103.599H49.3447V110ZM58.1045 110H57.2744V106.641H53.5146V110H52.6846V102.861H53.5146V105.898H57.2744V102.861H58.1045V110ZM65.458 102.861V107.48C65.458 108.294 65.2122 108.934 64.7207 109.399C64.2292 109.865 63.5537 110.098 62.6943 110.098C61.835 110.098 61.1693 109.863 60.6973 109.395C60.2285 108.926 59.9941 108.281 59.9941 107.461V102.861H60.8242V107.52C60.8242 108.115 60.987 108.573 61.3125 108.892C61.638 109.211 62.1165 109.37 62.748 109.37C63.3503 109.37 63.8141 109.211 64.1396 108.892C64.4652 108.569 64.6279 108.109 64.6279 107.51V102.861H65.458ZM68.1826 107.031V110H67.3525V102.861H69.3105C70.1862 102.861 70.8324 103.029 71.249 103.364C71.6689 103.7 71.8789 104.204 71.8789 104.878C71.8789 105.822 71.4004 106.46 70.4434 106.792L72.3818 110H71.4004L69.6719 107.031H68.1826ZM68.1826 106.318H69.3203C69.9062 106.318 70.3359 106.203 70.6094 105.972C70.8828 105.737 71.0195 105.387 71.0195 104.922C71.0195 104.45 70.8796 104.11 70.5996 103.901C70.3229 103.693 69.877 103.589 69.2617 103.589H68.1826V106.318Z" fill="white"/>
<path d="M22.334 126.717C22.334 128.205 22.0938 129.311 21.6133 130.033C21.1367 130.756 20.4062 131.117 19.4219 131.117C18.4688 131.117 17.7461 130.744 17.2539 129.998C16.7617 129.252 16.5156 128.158 16.5156 126.717C16.5156 125.205 16.7539 124.092 17.2305 123.377C17.7109 122.658 18.4414 122.299 19.4219 122.299C20.3789 122.299 21.1035 122.674 21.5957 123.424C22.0879 124.174 22.334 125.271 22.334 126.717ZM17.9102 126.717C17.9102 127.885 18.0293 128.719 18.2676 129.219C18.5098 129.719 18.8945 129.969 19.4219 129.969C19.9492 129.969 20.334 129.715 20.5762 129.207C20.8223 128.699 20.9453 127.869 20.9453 126.717C20.9453 125.568 20.8223 124.738 20.5762 124.227C20.334 123.711 19.9492 123.453 19.4219 123.453C18.8945 123.453 18.5098 123.705 18.2676 124.209C18.0293 124.713 17.9102 125.549 17.9102 126.717ZM26.2773 122.322C27.0898 122.322 27.7324 122.51 28.2051 122.885C28.6777 123.256 28.9141 123.754 28.9141 124.379C28.9141 125.258 28.3867 125.957 27.332 126.477C28.0039 126.812 28.4805 127.166 28.7617 127.537C29.0469 127.908 29.1895 128.322 29.1895 128.779C29.1895 129.486 28.9297 130.053 28.4102 130.479C27.8906 130.904 27.1875 131.117 26.3008 131.117C25.3711 131.117 24.6504 130.918 24.1387 130.52C23.627 130.121 23.3711 129.557 23.3711 128.826C23.3711 128.35 23.5039 127.922 23.7695 127.543C24.0391 127.16 24.4785 126.82 25.0879 126.523C24.5645 126.211 24.1914 125.881 23.9688 125.533C23.7461 125.186 23.6348 124.795 23.6348 124.361C23.6348 123.74 23.8789 123.246 24.3672 122.879C24.8555 122.508 25.4922 122.322 26.2773 122.322ZM24.6895 128.779C24.6895 129.186 24.832 129.502 25.1172 129.729C25.4023 129.951 25.7891 130.062 26.2773 130.062C26.7812 130.062 27.1719 129.947 27.4492 129.717C27.7305 129.482 27.8711 129.166 27.8711 128.768C27.8711 128.451 27.7422 128.162 27.4844 127.9C27.2266 127.639 26.8359 127.396 26.3125 127.174L26.1426 127.098C25.627 127.324 25.2559 127.574 25.0293 127.848C24.8027 128.117 24.6895 128.428 24.6895 128.779ZM26.2656 123.383C25.875 123.383 25.5605 123.48 25.3223 123.676C25.084 123.867 24.9648 124.129 24.9648 124.461C24.9648 124.664 25.0078 124.846 25.0938 125.006C25.1797 125.166 25.3047 125.312 25.4688 125.445C25.6328 125.574 25.9102 125.73 26.3008 125.914C26.7695 125.707 27.0996 125.49 27.291 125.264C27.4863 125.033 27.584 124.766 27.584 124.461C27.584 124.129 27.4629 123.867 27.2207 123.676C26.9824 123.48 26.6641 123.383 26.2656 123.383ZM34.293 122.434L31.1055 131H29.8047L32.998 122.434H34.293ZM40.7324 131H34.9258V129.957L37.1348 127.736C37.7871 127.068 38.2188 126.596 38.4297 126.318C38.6445 126.037 38.8008 125.773 38.8984 125.527C38.9961 125.281 39.0449 125.018 39.0449 124.736C39.0449 124.35 38.9277 124.045 38.6934 123.822C38.4629 123.6 38.1426 123.488 37.7324 123.488C37.4043 123.488 37.0859 123.549 36.7773 123.67C36.4727 123.791 36.1191 124.01 35.7168 124.326L34.9727 123.418C35.4492 123.016 35.9121 122.73 36.3613 122.562C36.8105 122.395 37.2891 122.311 37.7969 122.311C38.5938 122.311 39.2324 122.52 39.7129 122.938C40.1934 123.352 40.4336 123.91 40.4336 124.613C40.4336 125 40.3633 125.367 40.2227 125.715C40.0859 126.062 39.873 126.422 39.584 126.793C39.2988 127.16 38.8223 127.658 38.1543 128.287L36.666 129.729V129.787H40.7324V131ZM47.5879 131H41.7812V129.957L43.9902 127.736C44.6426 127.068 45.0742 126.596 45.2852 126.318C45.5 126.037 45.6562 125.773 45.7539 125.527C45.8516 125.281 45.9004 125.018 45.9004 124.736C45.9004 124.35 45.7832 124.045 45.5488 123.822C45.3184 123.6 44.998 123.488 44.5879 123.488C44.2598 123.488 43.9414 123.549 43.6328 123.67C43.3281 123.791 42.9746 124.01 42.5723 124.326L41.8281 123.418C42.3047 123.016 42.7676 122.73 43.2168 122.562C43.666 122.395 44.1445 122.311 44.6523 122.311C45.4492 122.311 46.0879 122.52 46.5684 122.938C47.0488 123.352 47.2891 123.91 47.2891 124.613C47.2891 125 47.2188 125.367 47.0781 125.715C46.9414 126.062 46.7285 126.422 46.4395 126.793C46.1543 127.16 45.6777 127.658 45.0098 128.287L43.5215 129.729V129.787H47.5879V131Z" fill="white"/>
<path d="M89.0283 103.491C88.6344 103.491 88.2796 103.56 87.9639 103.696C87.6514 103.83 87.3844 104.025 87.1631 104.282C86.945 104.536 86.7773 104.844 86.6602 105.205C86.543 105.566 86.4844 105.973 86.4844 106.426C86.4844 107.025 86.5771 107.546 86.7627 107.988C86.9515 108.428 87.2314 108.768 87.6025 109.009C87.9769 109.25 88.444 109.37 89.0039 109.37C89.3229 109.37 89.6224 109.344 89.9023 109.292C90.1855 109.237 90.4606 109.168 90.7275 109.087V109.81C90.4671 109.907 90.1937 109.979 89.9072 110.024C89.6208 110.073 89.2806 110.098 88.8867 110.098C88.1608 110.098 87.5537 109.948 87.0654 109.648C86.5804 109.346 86.2158 108.919 85.9717 108.369C85.7308 107.819 85.6104 107.17 85.6104 106.421C85.6104 105.881 85.6852 105.387 85.835 104.941C85.988 104.492 86.2093 104.105 86.499 103.779C86.792 103.454 87.1501 103.203 87.5732 103.027C87.9997 102.848 88.488 102.759 89.0381 102.759C89.3994 102.759 89.7477 102.795 90.083 102.866C90.4183 102.938 90.721 103.04 90.9912 103.174L90.6592 103.877C90.4313 103.773 90.1807 103.683 89.9072 103.608C89.637 103.53 89.3441 103.491 89.0283 103.491ZM96.7529 110L95.874 107.734H93.0127L92.1387 110H91.2988L94.0918 102.832H94.8389L97.6123 110H96.7529ZM95.625 106.997L94.79 104.746C94.7705 104.688 94.738 104.591 94.6924 104.458C94.6501 104.325 94.6061 104.186 94.5605 104.043C94.515 103.9 94.4775 103.784 94.4482 103.696C94.4157 103.83 94.3799 103.963 94.3408 104.097C94.305 104.227 94.2692 104.349 94.2334 104.463C94.1976 104.574 94.1667 104.668 94.1406 104.746L93.291 106.997H95.625ZM100.532 102.861C101.118 102.861 101.602 102.935 101.982 103.081C102.367 103.224 102.653 103.444 102.842 103.74C103.031 104.036 103.125 104.414 103.125 104.873C103.125 105.251 103.057 105.566 102.92 105.82C102.783 106.071 102.604 106.274 102.383 106.431C102.161 106.587 101.925 106.707 101.675 106.792L103.633 110H102.666L100.918 107.021H99.4336V110H98.6035V102.861H100.532ZM100.483 103.579H99.4336V106.318H100.566C101.149 106.318 101.577 106.2 101.851 105.962C102.127 105.724 102.266 105.374 102.266 104.912C102.266 104.427 102.119 104.084 101.826 103.882C101.536 103.68 101.089 103.579 100.483 103.579ZM110.444 106.362C110.444 107.166 110.298 107.839 110.005 108.379C109.712 108.916 109.287 109.321 108.73 109.595C108.177 109.865 107.505 110 106.714 110H104.775V102.861H106.929C107.655 102.861 108.28 102.995 108.804 103.262C109.328 103.525 109.731 103.918 110.015 104.438C110.301 104.956 110.444 105.597 110.444 106.362ZM109.57 106.392C109.57 105.75 109.463 105.221 109.248 104.805C109.036 104.388 108.724 104.079 108.311 103.877C107.9 103.672 107.397 103.569 106.802 103.569H105.605V109.287H106.616C107.599 109.287 108.337 109.045 108.828 108.56C109.323 108.075 109.57 107.352 109.57 106.392ZM120.039 110H119.209V106.636H115.459V110H114.629V102.861H115.459V105.903H119.209V102.861H120.039V110ZM128.193 106.421C128.193 106.971 128.123 107.472 127.983 107.925C127.843 108.374 127.635 108.761 127.358 109.087C127.085 109.409 126.745 109.658 126.338 109.834C125.931 110.01 125.459 110.098 124.922 110.098C124.368 110.098 123.885 110.01 123.472 109.834C123.062 109.658 122.72 109.408 122.446 109.082C122.176 108.757 121.973 108.368 121.836 107.915C121.702 107.463 121.636 106.961 121.636 106.411C121.636 105.682 121.756 105.042 121.997 104.492C122.238 103.942 122.603 103.514 123.091 103.208C123.582 102.902 124.198 102.749 124.937 102.749C125.643 102.749 126.237 102.9 126.719 103.203C127.204 103.506 127.57 103.932 127.817 104.482C128.068 105.029 128.193 105.675 128.193 106.421ZM122.51 106.421C122.51 107.026 122.596 107.55 122.769 107.993C122.941 108.436 123.205 108.778 123.56 109.019C123.918 109.259 124.372 109.38 124.922 109.38C125.475 109.38 125.928 109.259 126.279 109.019C126.634 108.778 126.896 108.436 127.065 107.993C127.235 107.55 127.319 107.026 127.319 106.421C127.319 105.5 127.126 104.78 126.738 104.263C126.354 103.742 125.754 103.481 124.937 103.481C124.383 103.481 123.927 103.6 123.569 103.838C123.211 104.076 122.944 104.414 122.769 104.854C122.596 105.29 122.51 105.812 122.51 106.421ZM129.785 110V102.861H130.615V109.258H133.784V110H129.785ZM140.679 106.362C140.679 107.166 140.532 107.839 140.239 108.379C139.946 108.916 139.521 109.321 138.965 109.595C138.411 109.865 137.739 110 136.948 110H135.01V102.861H137.163C137.889 102.861 138.514 102.995 139.038 103.262C139.562 103.525 139.966 103.918 140.249 104.438C140.535 104.956 140.679 105.597 140.679 106.362ZM139.805 106.392C139.805 105.75 139.697 105.221 139.482 104.805C139.271 104.388 138.958 104.079 138.545 103.877C138.135 103.672 137.632 103.569 137.036 103.569H135.84V109.287H136.851C137.834 109.287 138.571 109.045 139.062 108.56C139.557 108.075 139.805 107.352 139.805 106.392ZM146.24 110H142.266V102.861H146.24V103.594H143.096V105.903H146.06V106.626H143.096V109.268H146.24V110ZM149.751 102.861C150.337 102.861 150.82 102.935 151.201 103.081C151.585 103.224 151.872 103.444 152.061 103.74C152.249 104.036 152.344 104.414 152.344 104.873C152.344 105.251 152.275 105.566 152.139 105.82C152.002 106.071 151.823 106.274 151.602 106.431C151.38 106.587 151.144 106.707 150.894 106.792L152.852 110H151.885L150.137 107.021H148.652V110H147.822V102.861H149.751ZM149.702 103.579H148.652V106.318H149.785C150.368 106.318 150.796 106.2 151.069 105.962C151.346 105.724 151.484 105.374 151.484 104.912C151.484 104.427 151.338 104.084 151.045 103.882C150.755 103.68 150.308 103.579 149.702 103.579Z" fill="white"/>
<path d="M89.8223 131L87.3555 123.846H87.3027C87.3145 124.006 87.3281 124.225 87.3438 124.502C87.3594 124.779 87.373 125.076 87.3848 125.393C87.3965 125.709 87.4023 126.012 87.4023 126.301V131H86.125V122.434H88.0996L90.4727 129.271H90.5078L92.9629 122.434H94.9316V131H93.5898V126.23C93.5898 125.969 93.5938 125.686 93.6016 125.381C93.6133 125.076 93.625 124.787 93.6367 124.514C93.6523 124.24 93.6641 124.021 93.6719 123.857H93.625L91.0645 131H89.8223ZM99.2266 131.117C98.4531 131.117 97.832 130.836 97.3633 130.273C96.8984 129.707 96.666 128.873 96.666 127.771C96.666 126.658 96.9023 125.816 97.375 125.246C97.8516 124.676 98.4785 124.391 99.2559 124.391C99.584 124.391 99.8711 124.436 100.117 124.525C100.363 124.611 100.574 124.729 100.75 124.877C100.93 125.025 101.082 125.191 101.207 125.375H101.271C101.252 125.254 101.229 125.08 101.201 124.854C101.178 124.623 101.166 124.41 101.166 124.215V121.883H102.549V131H101.471L101.225 130.115H101.166C101.049 130.303 100.9 130.473 100.721 130.625C100.545 130.773 100.334 130.893 100.088 130.982C99.8457 131.072 99.5586 131.117 99.2266 131.117ZM99.6133 129.998C100.203 129.998 100.619 129.828 100.861 129.488C101.104 129.148 101.229 128.639 101.236 127.959V127.777C101.236 127.051 101.119 126.494 100.885 126.107C100.65 125.717 100.223 125.521 99.6016 125.521C99.1055 125.521 98.7266 125.723 98.4648 126.125C98.207 126.523 98.0781 127.08 98.0781 127.795C98.0781 128.51 98.207 129.057 98.4648 129.436C98.7266 129.811 99.1094 129.998 99.6133 129.998ZM111.479 131L109.012 123.846H108.959C108.971 124.006 108.984 124.225 109 124.502C109.016 124.779 109.029 125.076 109.041 125.393C109.053 125.709 109.059 126.012 109.059 126.301V131H107.781V122.434H109.756L112.129 129.271H112.164L114.619 122.434H116.588V131H115.246V126.23C115.246 125.969 115.25 125.686 115.258 125.381C115.27 125.076 115.281 124.787 115.293 124.514C115.309 124.24 115.32 124.021 115.328 123.857H115.281L112.721 131H111.479ZM124.445 127.742C124.445 128.281 124.375 128.76 124.234 129.178C124.094 129.596 123.889 129.949 123.619 130.238C123.35 130.523 123.025 130.742 122.646 130.895C122.268 131.043 121.84 131.117 121.363 131.117C120.918 131.117 120.51 131.043 120.139 130.895C119.768 130.742 119.445 130.523 119.172 130.238C118.902 129.949 118.693 129.596 118.545 129.178C118.396 128.76 118.322 128.281 118.322 127.742C118.322 127.027 118.445 126.422 118.691 125.926C118.941 125.426 119.297 125.045 119.758 124.783C120.219 124.521 120.768 124.391 121.404 124.391C122.002 124.391 122.529 124.521 122.986 124.783C123.443 125.045 123.801 125.426 124.059 125.926C124.316 126.426 124.445 127.031 124.445 127.742ZM119.74 127.742C119.74 128.215 119.797 128.619 119.91 128.955C120.027 129.291 120.207 129.549 120.449 129.729C120.691 129.904 121.004 129.992 121.387 129.992C121.77 129.992 122.082 129.904 122.324 129.729C122.566 129.549 122.744 129.291 122.857 128.955C122.971 128.619 123.027 128.215 123.027 127.742C123.027 127.27 122.971 126.869 122.857 126.541C122.744 126.209 122.566 125.957 122.324 125.785C122.082 125.609 121.768 125.521 121.381 125.521C120.811 125.521 120.395 125.713 120.133 126.096C119.871 126.479 119.74 127.027 119.74 127.742ZM130.387 129.148C130.387 129.574 130.283 129.934 130.076 130.227C129.869 130.52 129.566 130.742 129.168 130.895C128.773 131.043 128.289 131.117 127.715 131.117C127.262 131.117 126.871 131.084 126.543 131.018C126.219 130.955 125.912 130.857 125.623 130.725V129.535C125.932 129.68 126.277 129.805 126.66 129.91C127.047 130.016 127.412 130.068 127.756 130.068C128.209 130.068 128.535 129.998 128.734 129.857C128.934 129.713 129.033 129.521 129.033 129.283C129.033 129.143 128.992 129.018 128.91 128.908C128.832 128.795 128.684 128.68 128.465 128.562C128.25 128.441 127.934 128.297 127.516 128.129C127.105 127.965 126.76 127.801 126.479 127.637C126.197 127.473 125.984 127.275 125.84 127.045C125.695 126.811 125.623 126.512 125.623 126.148C125.623 125.574 125.85 125.139 126.303 124.842C126.76 124.541 127.363 124.391 128.113 124.391C128.512 124.391 128.887 124.432 129.238 124.514C129.594 124.592 129.941 124.707 130.281 124.859L129.848 125.896C129.555 125.768 129.26 125.662 128.963 125.58C128.67 125.494 128.371 125.451 128.066 125.451C127.711 125.451 127.439 125.506 127.252 125.615C127.068 125.725 126.977 125.881 126.977 126.084C126.977 126.236 127.021 126.365 127.111 126.471C127.201 126.576 127.355 126.682 127.574 126.787C127.797 126.893 128.105 127.023 128.5 127.18C128.887 127.328 129.221 127.484 129.502 127.648C129.787 127.809 130.006 128.006 130.158 128.24C130.311 128.475 130.387 128.777 130.387 129.148ZM133.252 121.883V124.174C133.252 124.412 133.244 124.645 133.229 124.871C133.217 125.098 133.203 125.273 133.188 125.398H133.264C133.4 125.172 133.568 124.986 133.768 124.842C133.967 124.693 134.189 124.582 134.436 124.508C134.686 124.434 134.951 124.396 135.232 124.396C135.729 124.396 136.15 124.48 136.498 124.648C136.846 124.812 137.111 125.068 137.295 125.416C137.482 125.764 137.576 126.215 137.576 126.77V131H136.199V127.027C136.199 126.523 136.096 126.146 135.889 125.896C135.682 125.643 135.361 125.516 134.928 125.516C134.51 125.516 134.178 125.604 133.932 125.779C133.689 125.951 133.516 126.207 133.41 126.547C133.305 126.883 133.252 127.293 133.252 127.777V131H131.875V121.883H133.252ZM143.623 133.877V131.123C143.623 130.967 143.627 130.797 143.635 130.613C143.646 130.43 143.664 130.262 143.688 130.109H143.617C143.441 130.395 143.197 130.635 142.885 130.83C142.572 131.021 142.164 131.117 141.66 131.117C140.898 131.117 140.285 130.836 139.82 130.273C139.355 129.707 139.123 128.871 139.123 127.766C139.123 127.031 139.23 126.414 139.445 125.914C139.66 125.414 139.961 125.035 140.348 124.777C140.738 124.52 141.191 124.391 141.707 124.391C142.203 124.391 142.605 124.488 142.914 124.684C143.227 124.875 143.477 125.111 143.664 125.393H143.711L143.863 124.514H145.006V133.877H143.623ZM142.07 130.01C142.461 130.01 142.773 129.936 143.008 129.787C143.242 129.639 143.412 129.414 143.518 129.113C143.623 128.809 143.68 128.432 143.688 127.982V127.771C143.688 127.037 143.568 126.479 143.33 126.096C143.092 125.713 142.668 125.521 142.059 125.521C141.543 125.521 141.16 125.723 140.91 126.125C140.66 126.523 140.535 127.078 140.535 127.789C140.535 128.508 140.66 129.059 140.91 129.441C141.164 129.82 141.551 130.01 142.07 130.01ZM152.635 124.514V131H151.551L151.363 130.127H151.287C151.15 130.35 150.977 130.535 150.766 130.684C150.555 130.828 150.32 130.936 150.062 131.006C149.805 131.08 149.533 131.117 149.248 131.117C148.76 131.117 148.342 131.035 147.994 130.871C147.65 130.703 147.387 130.445 147.203 130.098C147.02 129.75 146.928 129.301 146.928 128.75V124.514H148.311V128.492C148.311 128.996 148.412 129.373 148.615 129.623C148.822 129.873 149.143 129.998 149.576 129.998C149.994 129.998 150.326 129.912 150.572 129.74C150.818 129.568 150.992 129.314 151.094 128.979C151.199 128.643 151.252 128.23 151.252 127.742V124.514H152.635ZM157.896 124.391C158.006 124.391 158.125 124.396 158.254 124.408C158.383 124.42 158.494 124.436 158.588 124.455L158.459 125.744C158.377 125.721 158.275 125.703 158.154 125.691C158.037 125.68 157.932 125.674 157.838 125.674C157.592 125.674 157.357 125.715 157.135 125.797C156.912 125.875 156.715 125.996 156.543 126.16C156.371 126.32 156.236 126.521 156.139 126.764C156.041 127.006 155.992 127.287 155.992 127.607V131H154.609V124.514H155.688L155.875 125.656H155.939C156.068 125.426 156.229 125.215 156.42 125.023C156.611 124.832 156.83 124.68 157.076 124.566C157.326 124.449 157.6 124.391 157.896 124.391ZM168.355 131L167.518 128.621H164.242L163.404 131H161.922L165.109 122.398H166.668L169.85 131H168.355ZM167.154 127.414L166.34 125.07C166.309 124.969 166.264 124.826 166.205 124.643C166.146 124.455 166.088 124.266 166.029 124.074C165.971 123.879 165.922 123.715 165.883 123.582C165.844 123.742 165.795 123.922 165.736 124.121C165.682 124.316 165.627 124.5 165.572 124.672C165.521 124.844 165.482 124.977 165.455 125.07L164.635 127.414H167.154ZM172.223 131H170.84V121.883H172.223V131ZM176.734 124.391C177.555 124.391 178.174 124.572 178.592 124.936C179.014 125.299 179.225 125.865 179.225 126.635V131H178.246L177.982 130.08H177.936C177.752 130.314 177.562 130.508 177.367 130.66C177.172 130.812 176.945 130.926 176.688 131C176.434 131.078 176.123 131.117 175.756 131.117C175.369 131.117 175.023 131.047 174.719 130.906C174.414 130.762 174.174 130.543 173.998 130.25C173.822 129.957 173.734 129.586 173.734 129.137C173.734 128.469 173.982 127.967 174.479 127.631C174.979 127.295 175.732 127.109 176.74 127.074L177.865 127.033V126.693C177.865 126.244 177.76 125.924 177.549 125.732C177.342 125.541 177.049 125.445 176.67 125.445C176.346 125.445 176.031 125.492 175.727 125.586C175.422 125.68 175.125 125.795 174.836 125.932L174.391 124.959C174.707 124.791 175.066 124.654 175.469 124.549C175.875 124.443 176.297 124.391 176.734 124.391ZM177.859 127.9L177.021 127.93C176.334 127.953 175.852 128.07 175.574 128.281C175.297 128.492 175.158 128.781 175.158 129.148C175.158 129.469 175.254 129.703 175.445 129.852C175.637 129.996 175.889 130.068 176.201 130.068C176.678 130.068 177.072 129.934 177.385 129.664C177.701 129.391 177.859 128.99 177.859 128.463V127.9ZM188.482 124.391C189.209 124.391 189.756 124.578 190.123 124.953C190.494 125.328 190.68 125.93 190.68 126.758V131H189.303V127.004C189.303 126.512 189.207 126.141 189.016 125.891C188.824 125.641 188.533 125.516 188.143 125.516C187.596 125.516 187.201 125.691 186.959 126.043C186.721 126.391 186.602 126.896 186.602 127.561V131H185.225V127.004C185.225 126.676 185.182 126.402 185.096 126.184C185.014 125.961 184.887 125.795 184.715 125.686C184.543 125.572 184.326 125.516 184.064 125.516C183.686 125.516 183.383 125.602 183.156 125.773C182.934 125.945 182.773 126.199 182.676 126.535C182.578 126.867 182.529 127.275 182.529 127.76V131H181.152V124.514H182.225L182.418 125.387H182.494C182.627 125.16 182.791 124.975 182.986 124.83C183.186 124.682 183.406 124.572 183.648 124.502C183.891 124.428 184.143 124.391 184.404 124.391C184.889 124.391 185.297 124.477 185.629 124.648C185.961 124.816 186.209 125.074 186.373 125.422H186.479C186.682 125.07 186.965 124.811 187.328 124.643C187.691 124.475 188.076 124.391 188.482 124.391Z" fill="white"/>
<path d="M21.5645 62.2783V60.1191C20.612 60.0977 19.7598 60.0081 19.0078 59.8506C18.263 59.6859 17.5827 59.4674 16.9668 59.1953V56.3594C17.5755 56.653 18.3024 56.9215 19.1475 57.165C19.9925 57.4014 20.7982 57.5446 21.5645 57.5947V54.2646C20.4329 53.8206 19.527 53.391 18.8467 52.9756C18.1735 52.5531 17.6865 52.0876 17.3857 51.5791C17.0921 51.0635 16.9453 50.4476 16.9453 49.7314C16.9453 49.001 17.1387 48.3708 17.5254 47.8408C17.9193 47.3037 18.4635 46.874 19.1582 46.5518C19.8529 46.2295 20.6549 46.029 21.5645 45.9502V44.3066H23.0361V45.9072C23.8669 45.9359 24.6403 46.0326 25.3564 46.1973C26.0798 46.3548 26.7887 46.5876 27.4834 46.8955L26.4736 49.4092C25.8864 49.1657 25.2956 48.9759 24.7012 48.8398C24.1139 48.7038 23.5589 48.6143 23.0361 48.5713V51.7402C23.8311 52.0339 24.5866 52.3525 25.3027 52.6963C26.0189 53.04 26.6025 53.4769 27.0537 54.0068C27.5049 54.5368 27.7305 55.2314 27.7305 56.0908C27.7305 57.1579 27.3402 58.0531 26.5596 58.7764C25.7861 59.4997 24.6117 59.9329 23.0361 60.0762V62.2783H21.5645ZM23.0361 57.5195C23.5374 57.4336 23.9062 57.2868 24.1426 57.0791C24.3789 56.8643 24.4971 56.5885 24.4971 56.252C24.4971 56.0514 24.4434 55.8724 24.3359 55.7148C24.2285 55.5573 24.0638 55.4105 23.8418 55.2744C23.627 55.1312 23.3584 54.988 23.0361 54.8447V57.5195ZM21.5645 51.1387V48.6143C21.2708 48.6572 21.0202 48.7288 20.8125 48.8291C20.6048 48.9222 20.4473 49.0439 20.3398 49.1943C20.2324 49.3447 20.1787 49.5238 20.1787 49.7314C20.1787 49.9391 20.2253 50.1217 20.3184 50.2793C20.4186 50.4368 20.569 50.5837 20.7695 50.7197C20.9772 50.8558 21.2422 50.9954 21.5645 51.1387ZM31.0283 61L36.9258 48.0879H29.1807V45.2949H40.4492V47.3789L34.5088 61H31.0283ZM47.4746 45.0908C48.377 45.0908 49.2077 45.2305 49.9668 45.5098C50.7331 45.7891 51.3454 46.2116 51.8037 46.7773C52.262 47.3359 52.4912 48.0378 52.4912 48.8828C52.4912 49.513 52.3659 50.0645 52.1152 50.5371C51.8717 51.0098 51.5387 51.4251 51.1162 51.7832C50.6937 52.1341 50.2139 52.4421 49.6768 52.707C50.2354 53.0007 50.7653 53.3444 51.2666 53.7383C51.7679 54.125 52.1761 54.5798 52.4912 55.1025C52.8135 55.6253 52.9746 56.234 52.9746 56.9287C52.9746 57.8024 52.7419 58.5615 52.2764 59.2061C51.8109 59.8434 51.1663 60.3376 50.3428 60.6885C49.5192 61.0394 48.5632 61.2148 47.4746 61.2148C46.3001 61.2148 45.3011 61.0465 44.4775 60.71C43.654 60.3734 43.0273 59.8936 42.5977 59.2705C42.168 58.6403 41.9531 57.8883 41.9531 57.0146C41.9531 56.2985 42.0856 55.6755 42.3506 55.1455C42.6227 54.6156 42.988 54.1608 43.4463 53.7812C43.9046 53.3945 44.4095 53.0651 44.9609 52.793C44.4954 52.4993 44.0693 52.1663 43.6826 51.7939C43.3031 51.4215 42.9987 50.9954 42.7695 50.5156C42.5475 50.0358 42.4365 49.4844 42.4365 48.8613C42.4365 48.0306 42.6693 47.3359 43.1348 46.7773C43.6074 46.2188 44.2269 45.7998 44.9932 45.5205C45.7594 45.234 46.5866 45.0908 47.4746 45.0908ZM45.0254 56.8213C45.0254 57.387 45.2259 57.8561 45.627 58.2285C46.0352 58.5938 46.6367 58.7764 47.4316 58.7764C48.2552 58.7764 48.8711 58.6009 49.2793 58.25C49.6875 57.8919 49.8916 57.4229 49.8916 56.8428C49.8916 56.4417 49.7734 56.0908 49.5371 55.79C49.3079 55.4893 49.0179 55.2207 48.667 54.9844C48.3161 54.7409 47.9616 54.5153 47.6035 54.3076L47.3135 54.1572C46.8551 54.3649 46.4541 54.5977 46.1104 54.8555C45.7738 55.1133 45.5088 55.4033 45.3154 55.7256C45.1221 56.0479 45.0254 56.4131 45.0254 56.8213ZM47.4531 47.5186C46.9089 47.5186 46.4577 47.6582 46.0996 47.9375C45.7415 48.2168 45.5625 48.6107 45.5625 49.1191C45.5625 49.4772 45.6484 49.7923 45.8203 50.0645C45.9993 50.3294 46.2321 50.5622 46.5186 50.7627C46.8122 50.9632 47.1309 51.1494 47.4746 51.3213C47.804 51.1637 48.112 50.9883 48.3984 50.7949C48.6849 50.6016 48.9176 50.3688 49.0967 50.0967C49.2757 49.8245 49.3652 49.4987 49.3652 49.1191C49.3652 48.6107 49.1826 48.2168 48.8174 47.9375C48.4593 47.6582 48.0046 47.5186 47.4531 47.5186ZM58.5391 58.4434L58.7002 58.6904C58.5713 59.2061 58.403 59.7611 58.1953 60.3555C57.9948 60.9499 57.7728 61.5443 57.5293 62.1387C57.293 62.7331 57.0531 63.2988 56.8096 63.8359H54.4463C54.5895 63.2559 54.7292 62.6471 54.8652 62.0098C55.0013 61.3724 55.1266 60.7458 55.2412 60.1299C55.363 59.514 55.4596 58.9518 55.5312 58.4434H58.5391ZM71.29 48.8076C71.29 49.5309 71.1396 50.1576 70.8389 50.6875C70.5381 51.2174 70.1299 51.6507 69.6143 51.9873C69.1058 52.3239 68.5329 52.571 67.8955 52.7285V52.793C69.1559 52.9505 70.112 53.3372 70.7637 53.9531C71.4225 54.569 71.752 55.3926 71.752 56.4238C71.752 57.3405 71.5264 58.1605 71.0752 58.8838C70.6312 59.6071 69.9437 60.1764 69.0127 60.5918C68.0817 61.0072 66.8822 61.2148 65.4141 61.2148C64.5475 61.2148 63.7383 61.1432 62.9863 61C62.2415 60.8639 61.5397 60.6527 60.8809 60.3662V57.541C61.554 57.8848 62.2594 58.1462 62.9971 58.3252C63.7347 58.4971 64.4222 58.583 65.0596 58.583C66.2484 58.583 67.0791 58.3789 67.5518 57.9707C68.0316 57.5553 68.2715 56.9753 68.2715 56.2305C68.2715 55.7936 68.1605 55.4248 67.9385 55.124C67.7165 54.8232 67.3298 54.5941 66.7783 54.4365C66.234 54.279 65.4714 54.2002 64.4902 54.2002H63.2979V51.6543H64.5117C65.4785 51.6543 66.2126 51.5648 66.7139 51.3857C67.2223 51.1995 67.5661 50.9489 67.7451 50.6338C67.9313 50.3115 68.0244 49.9463 68.0244 49.5381C68.0244 48.9795 67.8525 48.5426 67.5088 48.2275C67.165 47.9124 66.5921 47.7549 65.79 47.7549C65.2887 47.7549 64.8304 47.8193 64.415 47.9482C64.0068 48.07 63.638 48.2204 63.3086 48.3994C62.9792 48.5713 62.6891 48.7396 62.4385 48.9043L60.9023 46.6162C61.5182 46.1722 62.238 45.8034 63.0615 45.5098C63.8923 45.2161 64.8805 45.0693 66.0264 45.0693C67.6449 45.0693 68.9268 45.3952 69.8721 46.0469C70.8174 46.6986 71.29 47.6188 71.29 48.8076ZM79.2285 50.9668C80.1882 50.9668 81.0404 51.1494 81.7852 51.5146C82.5371 51.8799 83.1279 52.417 83.5576 53.126C83.9873 53.835 84.2021 54.7087 84.2021 55.7471C84.2021 56.8786 83.9658 57.8561 83.4932 58.6797C83.0277 59.4961 82.3294 60.1227 81.3984 60.5596C80.4746 60.9964 79.3216 61.2148 77.9395 61.2148C77.1159 61.2148 76.3389 61.1432 75.6084 61C74.8851 60.8639 74.2513 60.6527 73.707 60.3662V57.498C74.2513 57.7845 74.903 58.028 75.6621 58.2285C76.4284 58.4219 77.1481 58.5186 77.8213 58.5186C78.4801 58.5186 79.0352 58.4326 79.4863 58.2607C79.9375 58.0817 80.2777 57.8096 80.5068 57.4443C80.7432 57.0719 80.8613 56.5993 80.8613 56.0264C80.8613 55.2601 80.6035 54.6729 80.0879 54.2646C79.5723 53.8564 78.7809 53.6523 77.7139 53.6523C77.3057 53.6523 76.8796 53.6917 76.4355 53.7705C75.9987 53.8493 75.6335 53.9281 75.3398 54.0068L74.0186 53.2979L74.6094 45.2949H83.1279V48.1094H77.5205L77.2305 51.1924C77.474 51.1423 77.7389 51.0921 78.0254 51.042C78.3118 50.9919 78.7129 50.9668 79.2285 50.9668ZM91.8184 50.9668C92.778 50.9668 93.6302 51.1494 94.375 51.5146C95.127 51.8799 95.7178 52.417 96.1475 53.126C96.5771 53.835 96.792 54.7087 96.792 55.7471C96.792 56.8786 96.5557 57.8561 96.083 58.6797C95.6175 59.4961 94.9193 60.1227 93.9883 60.5596C93.0645 60.9964 91.9115 61.2148 90.5293 61.2148C89.7057 61.2148 88.9287 61.1432 88.1982 61C87.4749 60.8639 86.8411 60.6527 86.2969 60.3662V57.498C86.8411 57.7845 87.4928 58.028 88.252 58.2285C89.0182 58.4219 89.738 58.5186 90.4111 58.5186C91.07 58.5186 91.625 58.4326 92.0762 58.2607C92.5273 58.0817 92.8675 57.8096 93.0967 57.4443C93.333 57.0719 93.4512 56.5993 93.4512 56.0264C93.4512 55.2601 93.1934 54.6729 92.6777 54.2646C92.1621 53.8564 91.3708 53.6523 90.3037 53.6523C89.8955 53.6523 89.4694 53.6917 89.0254 53.7705C88.5885 53.8493 88.2233 53.9281 87.9297 54.0068L86.6084 53.2979L87.1992 45.2949H95.7178V48.1094H90.1104L89.8203 51.1924C90.0638 51.1423 90.3288 51.0921 90.6152 51.042C90.9017 50.9919 91.3027 50.9668 91.8184 50.9668ZM99.0693 59.4639C99.0693 58.7907 99.252 58.318 99.6172 58.0459C99.9896 57.7738 100.437 57.6377 100.96 57.6377C101.468 57.6377 101.905 57.7738 102.271 58.0459C102.643 58.318 102.829 58.7907 102.829 59.4639C102.829 60.1084 102.643 60.5739 102.271 60.8604C101.905 61.1468 101.468 61.29 100.96 61.29C100.437 61.29 99.9896 61.1468 99.6172 60.8604C99.252 60.5739 99.0693 60.1084 99.0693 59.4639ZM113.174 61H109.854V51.9121C109.854 51.6615 109.858 51.3535 109.865 50.9883C109.872 50.6159 109.883 50.2363 109.897 49.8496C109.912 49.4557 109.926 49.1012 109.94 48.7861C109.862 48.8792 109.701 49.0404 109.457 49.2695C109.221 49.4915 108.999 49.6921 108.791 49.8711L106.986 51.3213L105.386 49.3232L110.445 45.2949H113.174V61ZM119.114 61L125.012 48.0879H117.267V45.2949H128.535V47.3789L122.595 61H119.114Z" fill="white"/>
<path d="M21.7627 31L18.4062 22.1543H18.3516C18.3698 22.3411 18.3857 22.569 18.3994 22.8379C18.4131 23.1068 18.4245 23.4007 18.4336 23.7197C18.4427 24.0342 18.4473 24.3555 18.4473 24.6836V31H17.3672V21.0059H19.0898L22.2549 29.3184H22.3027L25.5156 21.0059H27.2246V31H26.0762V24.6016C26.0762 24.3053 26.0807 24.0091 26.0898 23.7129C26.099 23.4121 26.1104 23.1296 26.124 22.8652C26.1377 22.5964 26.1514 22.3639 26.165 22.168H26.1104L22.7129 31H21.7627ZM32.5908 23.3848C33.484 23.3848 34.1471 23.5853 34.5801 23.9863C35.013 24.3874 35.2295 25.0277 35.2295 25.9072V31H34.4023L34.1836 29.8926H34.1289C33.9193 30.166 33.7005 30.3962 33.4727 30.583C33.2448 30.7653 32.9805 30.9043 32.6797 31C32.3835 31.0911 32.0189 31.1367 31.5859 31.1367C31.1302 31.1367 30.7246 31.057 30.3691 30.8975C30.0182 30.738 29.7402 30.4964 29.5352 30.1729C29.3346 29.8493 29.2344 29.4391 29.2344 28.9424C29.2344 28.195 29.5306 27.6208 30.123 27.2197C30.7155 26.8187 31.6178 26.5999 32.8301 26.5635L34.1221 26.5088V26.0508C34.1221 25.4036 33.9831 24.9502 33.7051 24.6904C33.4271 24.4307 33.0352 24.3008 32.5293 24.3008C32.1374 24.3008 31.7637 24.3577 31.4082 24.4717C31.0527 24.5856 30.7155 24.7201 30.3965 24.875L30.0479 24.0137C30.3851 23.8405 30.7725 23.6924 31.21 23.5693C31.6475 23.4463 32.1077 23.3848 32.5908 23.3848ZM34.1084 27.3086L32.9668 27.3564C32.0326 27.3929 31.374 27.5456 30.9912 27.8145C30.6084 28.0833 30.417 28.4639 30.417 28.9561C30.417 29.3844 30.5469 29.7012 30.8066 29.9062C31.0664 30.1113 31.4105 30.2139 31.8389 30.2139C32.5042 30.2139 33.0488 30.0293 33.4727 29.6602C33.8965 29.291 34.1084 28.7373 34.1084 27.999V27.3086ZM38.7021 23.5078V31H37.5674V23.5078H38.7021ZM38.1484 20.7051C38.3353 20.7051 38.4948 20.7666 38.627 20.8896C38.7637 21.0081 38.832 21.195 38.832 21.4502C38.832 21.7008 38.7637 21.8877 38.627 22.0107C38.4948 22.1338 38.3353 22.1953 38.1484 22.1953C37.9525 22.1953 37.7884 22.1338 37.6562 22.0107C37.5286 21.8877 37.4648 21.7008 37.4648 21.4502C37.4648 21.195 37.5286 21.0081 37.6562 20.8896C37.7884 20.7666 37.9525 20.7051 38.1484 20.7051ZM44.6562 23.3711C45.5449 23.3711 46.2171 23.5898 46.6729 24.0273C47.1286 24.4603 47.3564 25.1576 47.3564 26.1191V31H46.2354V26.1943C46.2354 25.57 46.0918 25.1029 45.8047 24.793C45.5221 24.4831 45.0869 24.3281 44.499 24.3281C43.6696 24.3281 43.0863 24.5628 42.749 25.0322C42.4118 25.5016 42.2432 26.1829 42.2432 27.0762V31H41.1084V23.5078H42.0244L42.1953 24.5879H42.2568C42.4163 24.3236 42.6191 24.1025 42.8652 23.9248C43.1113 23.7425 43.387 23.6058 43.6924 23.5146C43.9977 23.4189 44.319 23.3711 44.6562 23.3711ZM53.502 21.0059H56.332C57.5807 21.0059 58.5195 21.1927 59.1484 21.5664C59.7773 21.9401 60.0918 22.5758 60.0918 23.4736C60.0918 23.861 60.0166 24.2096 59.8662 24.5195C59.7204 24.8249 59.5062 25.0778 59.2236 25.2783C58.9411 25.4788 58.5924 25.6178 58.1777 25.6953V25.7637C58.6152 25.832 59.0026 25.9574 59.3398 26.1396C59.6771 26.3219 59.9414 26.5771 60.1328 26.9053C60.3242 27.2334 60.4199 27.6504 60.4199 28.1562C60.4199 28.7715 60.2764 29.291 59.9893 29.7148C59.7067 30.1387 59.3057 30.46 58.7861 30.6787C58.2666 30.8929 57.6514 31 56.9404 31H53.502V21.0059ZM54.6641 25.292H56.5781C57.4486 25.292 58.0501 25.1484 58.3828 24.8613C58.7201 24.5742 58.8887 24.1549 58.8887 23.6035C58.8887 23.0339 58.6882 22.6237 58.2871 22.373C57.8906 22.1224 57.2572 21.9971 56.3867 21.9971H54.6641V25.292ZM54.6641 26.2695V30.0088H56.7422C57.6309 30.0088 58.2598 29.8356 58.6289 29.4893C58.998 29.1383 59.1826 28.6667 59.1826 28.0742C59.1826 27.696 59.0983 27.3724 58.9297 27.1035C58.7656 26.8346 58.4967 26.6296 58.123 26.4883C57.7539 26.3424 57.2594 26.2695 56.6396 26.2695H54.6641ZM65.1846 23.3848C66.0778 23.3848 66.7409 23.5853 67.1738 23.9863C67.6068 24.3874 67.8232 25.0277 67.8232 25.9072V31H66.9961L66.7773 29.8926H66.7227C66.513 30.166 66.2943 30.3962 66.0664 30.583C65.8385 30.7653 65.5742 30.9043 65.2734 31C64.9772 31.0911 64.6126 31.1367 64.1797 31.1367C63.724 31.1367 63.3184 31.057 62.9629 30.8975C62.612 30.738 62.334 30.4964 62.1289 30.1729C61.9284 29.8493 61.8281 29.4391 61.8281 28.9424C61.8281 28.195 62.1243 27.6208 62.7168 27.2197C63.3092 26.8187 64.2116 26.5999 65.4238 26.5635L66.7158 26.5088V26.0508C66.7158 25.4036 66.5768 24.9502 66.2988 24.6904C66.0208 24.4307 65.6289 24.3008 65.123 24.3008C64.7311 24.3008 64.3574 24.3577 64.002 24.4717C63.6465 24.5856 63.3092 24.7201 62.9902 24.875L62.6416 24.0137C62.9788 23.8405 63.3662 23.6924 63.8037 23.5693C64.2412 23.4463 64.7015 23.3848 65.1846 23.3848ZM66.7021 27.3086L65.5605 27.3564C64.6263 27.3929 63.9678 27.5456 63.585 27.8145C63.2021 28.0833 63.0107 28.4639 63.0107 28.9561C63.0107 29.3844 63.1406 29.7012 63.4004 29.9062C63.6602 30.1113 64.0042 30.2139 64.4326 30.2139C65.098 30.2139 65.6426 30.0293 66.0664 29.6602C66.4902 29.291 66.7021 28.7373 66.7021 27.999V27.3086ZM71.3027 31H70.1611V20.3633H71.3027V31ZM76.5049 23.3848C77.3981 23.3848 78.0612 23.5853 78.4941 23.9863C78.9271 24.3874 79.1436 25.0277 79.1436 25.9072V31H78.3164L78.0977 29.8926H78.043C77.8333 30.166 77.6146 30.3962 77.3867 30.583C77.1589 30.7653 76.8945 30.9043 76.5938 31C76.2975 31.0911 75.9329 31.1367 75.5 31.1367C75.0443 31.1367 74.6387 31.057 74.2832 30.8975C73.9323 30.738 73.6543 30.4964 73.4492 30.1729C73.2487 29.8493 73.1484 29.4391 73.1484 28.9424C73.1484 28.195 73.4447 27.6208 74.0371 27.2197C74.6296 26.8187 75.5319 26.5999 76.7441 26.5635L78.0361 26.5088V26.0508C78.0361 25.4036 77.8971 24.9502 77.6191 24.6904C77.3411 24.4307 76.9492 24.3008 76.4434 24.3008C76.0514 24.3008 75.6777 24.3577 75.3223 24.4717C74.9668 24.5856 74.6296 24.7201 74.3105 24.875L73.9619 24.0137C74.2992 23.8405 74.6865 23.6924 75.124 23.5693C75.5615 23.4463 76.0218 23.3848 76.5049 23.3848ZM78.0225 27.3086L76.8809 27.3564C75.9466 27.3929 75.2881 27.5456 74.9053 27.8145C74.5225 28.0833 74.3311 28.4639 74.3311 28.9561C74.3311 29.3844 74.4609 29.7012 74.7207 29.9062C74.9805 30.1113 75.3245 30.2139 75.7529 30.2139C76.4183 30.2139 76.9629 30.0293 77.3867 29.6602C77.8105 29.291 78.0225 28.7373 78.0225 27.999V27.3086ZM85.0293 23.3711C85.918 23.3711 86.5902 23.5898 87.0459 24.0273C87.5016 24.4603 87.7295 25.1576 87.7295 26.1191V31H86.6084V26.1943C86.6084 25.57 86.4648 25.1029 86.1777 24.793C85.8952 24.4831 85.46 24.3281 84.8721 24.3281C84.0426 24.3281 83.4593 24.5628 83.1221 25.0322C82.7848 25.5016 82.6162 26.1829 82.6162 27.0762V31H81.4814V23.5078H82.3975L82.5684 24.5879H82.6299C82.7894 24.3236 82.9922 24.1025 83.2383 23.9248C83.4844 23.7425 83.7601 23.6058 84.0654 23.5146C84.3708 23.4189 84.6921 23.3711 85.0293 23.3711ZM93.0684 31.1367C92.3939 31.1367 91.7992 30.9977 91.2842 30.7197C90.7692 30.4417 90.3682 30.0179 90.0811 29.4482C89.7939 28.8786 89.6504 28.1608 89.6504 27.2949C89.6504 26.388 89.8008 25.6475 90.1016 25.0732C90.4069 24.4945 90.8262 24.0661 91.3594 23.7881C91.8926 23.5101 92.4987 23.3711 93.1777 23.3711C93.5514 23.3711 93.9115 23.4098 94.2578 23.4873C94.6087 23.5602 94.8958 23.6536 95.1191 23.7676L94.7773 24.7178C94.5495 24.6266 94.2852 24.5446 93.9844 24.4717C93.6882 24.3988 93.4102 24.3623 93.1504 24.3623C92.6309 24.3623 92.1979 24.474 91.8516 24.6973C91.5098 24.9206 91.2523 25.2487 91.0791 25.6816C90.9105 26.1146 90.8262 26.6478 90.8262 27.2812C90.8262 27.8874 90.9082 28.4046 91.0723 28.833C91.2409 29.2614 91.4893 29.5895 91.8174 29.8174C92.1501 30.0407 92.5648 30.1523 93.0615 30.1523C93.458 30.1523 93.8158 30.1113 94.1348 30.0293C94.4538 29.9427 94.7432 29.8424 95.0029 29.7285V30.7402C94.7523 30.8678 94.472 30.9658 94.1621 31.0342C93.8568 31.1025 93.4922 31.1367 93.0684 31.1367ZM99.665 23.3711C100.303 23.3711 100.85 23.5124 101.306 23.7949C101.761 24.0775 102.11 24.474 102.352 24.9844C102.593 25.4902 102.714 26.0827 102.714 26.7617V27.4658H97.5391C97.5527 28.3454 97.7715 29.0153 98.1953 29.4756C98.6191 29.9359 99.2161 30.166 99.9863 30.166C100.46 30.166 100.88 30.1227 101.244 30.0361C101.609 29.9495 101.987 29.8219 102.379 29.6533V30.6514C102.001 30.82 101.625 30.943 101.251 31.0205C100.882 31.098 100.444 31.1367 99.9385 31.1367C99.2184 31.1367 98.5895 30.9909 98.0518 30.6992C97.5186 30.403 97.1038 29.9701 96.8076 29.4004C96.5114 28.8307 96.3633 28.1335 96.3633 27.3086C96.3633 26.502 96.4977 25.8047 96.7666 25.2168C97.04 24.6243 97.4229 24.1686 97.915 23.8496C98.4118 23.5306 98.9951 23.3711 99.665 23.3711ZM99.6514 24.3008C99.0452 24.3008 98.5622 24.499 98.2021 24.8955C97.8421 25.292 97.6279 25.8457 97.5596 26.5566H101.524C101.52 26.11 101.449 25.7181 101.312 25.3809C101.18 25.0391 100.978 24.7747 100.704 24.5879C100.431 24.3965 100.08 24.3008 99.6514 24.3008Z" fill="white"/>
<circle cx="206" cy="28" r="12" fill="#FE6565"/>
<circle cx="222" cy="28" r="12" fill="#FEEF65"/>
<path d="M215 18.252C211.972 20.4303 210 23.9848 210 27.9999C210 32.0149 211.972 35.5694 215 37.7478C223 29.1461 218.333 21.1665 215 18.252Z" fill="#FFB228"/>
<defs>
<linearGradient id="paint0_linear_16_66" x1="18" y1="106.5" x2="176" y2="41.5" gradientUnits="userSpaceOnUse">
<stop stop-color="#8679E4"/>
<stop offset="1" stop-color="#7264D6"/>
</linearGradient>
<linearGradient id="paint1_linear_16_66" x1="18" y1="106.5" x2="176" y2="41.5" gradientUnits="userSpaceOnUse">
<stop stop-color="#30ACEA"/>
<stop offset="1" stop-color="#316FEA"/>
</linearGradient>
</defs>
</svg>
